<svg xmlns="http://www.w3.org/2000/svg" viewBox="0 0 60 60" fill="none">
  <rect width="60" height="60" rx="8" fill="#00A76F"/>
  <path d="M30 12C20.059 12 12 20.059 12 30C12 39.941 20.059 48 30 48C39.941 48 48 39.941 48 30C48 20.059 39.941 12 30 12ZM32.5 38.5V41H27.5V38.5C24.738 38.025 22.5 35.787 22.5 33H27.5C27.5 34.381 28.619 35.5 30 35.5C31.381 35.5 32.5 34.381 32.5 33C32.5 31.619 31.381 30.5 30 30.5C26.41 30.5 23.5 27.59 23.5 24C23.5 21.213 25.738 18.975 28.5 18.5V16H33.5V18.5C36.262 18.975 38.5 21.213 38.5 24H33.5C33.5 22.619 32.381 21.5 31 21.5C29.619 21.5 28.5 22.619 28.5 24C28.5 25.381 29.619 26.5 31 26.5C34.59 26.5 37.5 29.41 37.5 33C37.5 35.787 35.262 38.025 32.5 38.5Z" fill="white"/>
  <path d="M14 22L18 18M46 38L42 42M14 38L18 42M46 22L42 18" stroke="white" stroke-width="2" stroke-linecap="round"/>
</svg>
