<svg xmlns="http://www.w3.org/2000/svg" viewBox="0 0 60 60" width="60" height="60">
  <!-- Background -->
  <rect x="0" y="0" width="60" height="60" rx="8" ry="8" fill="#131929"/>

  <!-- Left curly brace { -->
  <path d="M15 12 Q10 12 10 17 L10 25 Q10 30 6 30 Q10 30 10 35 L10 43 Q10 48 15 48"
        stroke="#2dd4bf" stroke-width="4" fill="none" stroke-linecap="round"/>

  <!-- Right curly brace } -->
  <path d="M45 12 Q50 12 50 17 L50 25 Q50 30 54 30 Q50 30 50 35 L50 43 Q50 48 45 48"
        stroke="#2dd4bf" stroke-width="4" fill="none" stroke-linecap="round"/>

  <!-- X letter -->
  <path d="M22 20 L38 40 M38 20 L22 40"
        stroke="#ffffff" stroke-width="4.5" stroke-linecap="round"/>

  <!-- Sparkle ✦ -->
  <path d="M42 18 L44 14 L46 18 L50 20 L46 22 L44 26 L42 22 L38 20 Z"
        fill="#f59e0b"/>
</svg>
