<svg id="svg" version="1.1" xmlns="http://www.w3.org/2000/svg" xmlns:xlink="http://www.w3.org/1999/xlink" width="400" height="400" viewBox="0, 0, 400,400"><g id="svgg"><path id="path0" d="M114.306 48.412 C 87.701 50.111,66.237 66.237,60.142 89.104 C 58.355 95.811,58.316 96.530,58.014 128.800 C 57.690 163.352,57.837 161.580,54.794 167.614 C 48.834 179.436,42.377 183.055,26.400 183.532 L 17.400 183.800 17.294 196.973 C 17.212 207.245,17.300 210.217,17.694 210.467 C 17.972 210.643,21.350 210.794,25.200 210.801 C 39.396 210.827,46.491 215.090,52.642 227.287 C 57.576 237.071,57.706 238.244,58.027 275.800 C 58.336 312.037,58.409 312.964,61.623 321.553 C 70.557 345.432,92.355 357.615,126.400 357.757 L 136.600 357.800 136.600 344.200 L 136.600 330.600 124.000 330.365 C 104.968 330.011,96.132 326.570,89.819 317.054 C 85.438 310.451,85.520 311.215,85.204 274.200 C 84.913 240.076,84.920 240.208,82.779 231.324 C 80.059 220.037,73.691 207.549,67.064 200.505 C 65.569 198.915,65.200 198.288,65.534 197.905 C 65.776 197.627,67.473 195.849,69.307 193.954 C 76.424 186.596,81.112 177.739,83.893 166.400 L 84.923 162.200 85.200 130.800 C 85.502 96.518,85.410 97.813,87.932 92.275 C 90.919 85.714,97.156 80.450,105.182 77.716 C 110.936 75.755,112.601 75.553,124.905 75.323 L 136.811 75.100 136.705 61.650 L 136.600 48.200 127.800 48.156 C 122.960 48.132,116.888 48.247,114.306 48.412 M263.382 48.503 C 263.276 48.780,263.236 54.855,263.294 62.003 L 263.400 75.000 274.200 75.251 C 293.224 75.694,303.119 79.806,309.151 89.774 C 312.988 96.115,313.184 98.108,313.193 130.716 C 313.200 157.593,313.397 162.012,314.837 167.712 C 317.506 178.276,322.055 186.594,329.373 194.290 L 333.257 198.374 331.485 200.287 C 327.086 205.039,322.771 211.878,319.771 218.851 C 317.149 224.946,315.768 229.922,313.792 240.400 C 313.646 241.170,313.386 256.290,313.214 274.000 C 312.894 306.797,312.846 307.708,311.232 312.022 C 306.583 324.449,295.802 329.935,275.200 330.358 L 263.400 330.600 263.288 343.400 C 263.227 350.440,263.282 356.634,263.412 357.163 L 263.647 358.127 273.724 357.857 C 289.544 357.434,296.625 356.247,305.570 352.518 C 322.502 345.460,334.110 332.598,338.402 316.138 C 340.015 309.949,340.105 308.124,340.410 275.400 C 340.765 237.244,340.729 237.523,346.890 225.522 C 352.814 213.982,357.832 211.156,373.000 210.815 L 382.600 210.600 382.705 197.158 L 382.811 183.715 372.905 183.498 C 356.103 183.129,349.496 179.546,343.562 167.586 C 340.537 161.489,340.685 163.282,340.387 129.200 C 340.215 109.421,339.958 97.610,339.663 95.800 C 335.708 71.587,318.419 54.584,292.519 49.436 C 285.905 48.121,263.800 47.414,263.382 48.503 M151.212 225.068 C 151.669 225.802,151.663 226.048,151.176 226.668 C 150.648 227.339,150.659 227.354,151.300 226.851 C 152.179 226.162,152.191 225.455,151.336 224.749 C 150.730 224.249,150.719 224.277,151.212 225.068 " stroke="none" fill="#00DC9C" fill-rule="evenodd"></path><path id="path2" d="M102.228 163.245 C 102.537 163.745,144.487 216.255,148.936 221.712 C 150.511 223.643,151.853 225.378,151.919 225.567 C 152.021 225.866,144.438 235.449,109.529 279.132 C 105.604 284.044,102.494 288.229,102.619 288.432 C 103.093 289.197,124.612 288.886,125.524 288.100 C 125.971 287.715,131.353 281.100,137.484 273.400 C 143.615 265.700,151.144 256.269,154.216 252.441 C 157.287 248.614,160.610 244.431,161.600 243.146 C 162.590 241.861,163.608 240.853,163.862 240.905 C 164.115 240.957,172.353 251.080,182.168 263.400 C 191.982 275.720,200.608 286.475,201.337 287.300 L 202.662 288.800 213.931 288.800 C 220.760 288.800,225.200 288.651,225.200 288.421 C 225.200 288.213,223.073 285.378,220.474 282.121 C 217.875 278.864,209.297 268.100,201.414 258.200 C 193.530 248.300,186.418 239.390,185.609 238.400 C 183.156 235.398,177.832 228.695,176.626 227.091 L 175.491 225.581 177.075 223.691 C 178.610 221.859,189.369 208.470,213.307 178.600 C 219.655 170.680,225.023 163.885,225.238 163.500 C 225.606 162.840,224.959 162.800,214.061 162.800 L 202.495 162.800 189.347 179.282 C 182.116 188.347,175.247 196.942,174.082 198.382 C 172.917 199.822,170.231 203.205,168.113 205.900 C 165.995 208.595,164.068 210.791,163.831 210.781 C 163.363 210.760,162.201 209.348,151.008 195.200 C 146.918 190.030,142.893 184.990,142.064 184.000 C 141.235 183.010,138.860 180.040,136.786 177.400 C 134.713 174.760,132.832 172.403,132.608 172.162 C 132.384 171.921,130.622 169.716,128.692 167.262 L 125.185 162.800 113.569 162.800 C 105.146 162.800,102.028 162.922,102.228 163.245 " stroke="none" fill="#0F1C4D" fill-rule="evenodd"></path><path id="path3" d="M244.000 88.248 C 244.000 91.323,241.601 105.263,239.948 111.800 C 235.652 128.783,226.466 135.833,204.000 139.392 C 201.690 139.758,198.225 140.314,196.300 140.628 C 194.375 140.943,192.395 141.203,191.900 141.206 C 188.573 141.229,189.690 142.393,193.468 142.841 C 231.033 147.294,237.784 153.752,243.311 190.517 C 244.170 196.236,244.885 198.100,245.107 195.200 C 245.479 190.344,247.874 176.957,249.258 172.000 C 254.547 153.056,262.950 147.412,291.800 143.422 C 299.065 142.417,299.200 142.391,299.200 141.989 C 299.200 141.544,298.766 141.449,292.800 140.594 C 257.156 135.481,250.781 129.129,245.939 93.900 C 245.296 89.227,244.864 87.200,244.509 87.200 C 244.227 87.200,244.000 87.667,244.000 88.248 " stroke="none" fill="#ffb400" fill-rule="evenodd"></path></g></svg>